0
SECTION
2
HEADER
9
$INSUNITS
70
4
0
ENDSEC
0
SECTION
2
TABLES
0
TABLE
2
LTYPE
0
LTYPE
72
65
70
64
2
CONTINUOUS
3
______
73
0
40
0
0
ENDTAB
0
TABLE
2
LAYER
0
ENDTAB
0
ENDSEC
0
SECTION
2
ENTITIES
0
LINE
8
0
10
-9.15
20
-9.15
11
9.15
21
-9.15
0
LINE
8
0
10
9.15
20
-9.15
11
9.15
21
9.15
0
LINE
8
0
10
9.15
20
9.15
11
-9.15
21
9.15
0
LINE
8
0
10
-9.15
20
9.15
11
-9.15
21
-9.15
0
LINE
8
0
10
-9.15
20
9.9
11
9.15
21
9.9
0
LINE
8
0
10
9.15
20
9.9
11
9.15
21
28.2
0
LINE
8
0
10
9.15
20
28.2
11
-9.15
21
28.2
0
LINE
8
0
10
-9.15
20
28.2
11
-9.15
21
9.9
0
LINE
8
0
10
-9.15
20
28.95
11
9.15
21
28.95
0
LINE
8
0
10
9.15
20
28.95
11
9.15
21
47.25
0
LINE
8
0
10
9.15
20
47.25
11
-9.15
21
47.25
0
LINE
8
0
10
-9.15
20
47.25
11
-9.15
21
28.95
0
LINE
8
0
10
9.85
20
7.0425
11
28.15
21
7.0425
0
LINE
8
0
10
28.15
20
7.0425
11
28.15
21
25.3425
0
LINE
8
0
10
28.15
20
25.3425
11
9.85
21
25.3425
0
LINE
8
0
10
9.85
20
25.3425
11
9.85
21
7.0425
0
LINE
8
0
10
9.85
20
26.0925
11
28.15
21
26.0925
0
LINE
8
0
10
28.15
20
26.0925
11
28.15
21
44.3925
0
LINE
8
0
10
28.15
20
44.3925
11
9.85
21
44.3925
0
LINE
8
0
10
9.85
20
44.3925
11
9.85
21
26.0925
0
LINE
8
0
10
9.85
20
45.1425
11
28.15
21
45.1425
0
LINE
8
0
10
28.15
20
45.1425
11
28.15
21
63.4425
0
LINE
8
0
10
28.15
20
63.4425
11
9.85
21
63.4425
0
LINE
8
0
10
9.85
20
63.4425
11
9.85
21
45.1425
0
LINE
8
0
10
28.85
20
13.71
11
47.15
21
13.71
0
LINE
8
0
10
47.15
20
13.71
11
47.15
21
32.01
0
LINE
8
0
10
47.15
20
32.01
11
28.85
21
32.01
0
LINE
8
0
10
28.85
20
32.01
11
28.85
21
13.71
0
LINE
8
0
10
28.85
20
32.76
11
47.15
21
32.76
0
LINE
8
0
10
47.15
20
32.76
11
47.15
21
51.06
0
LINE
8
0
10
47.15
20
51.06
11
28.85
21
51.06
0
LINE
8
0
10
28.85
20
51.06
11
28.85
21
32.76
0
LINE
8
0
10
28.85
20
51.81
11
47.15
21
51.81
0
LINE
8
0
10
47.15
20
51.81
11
47.15
21
70.11
0
LINE
8
0
10
47.15
20
70.11
11
28.85
21
70.11
0
LINE
8
0
10
28.85
20
70.11
11
28.85
21
51.81
0
LINE
8
0
10
47.85
20
3.2325
11
66.15
21
3.2325
0
LINE
8
0
10
66.15
20
3.2325
11
66.15
21
21.5325
0
LINE
8
0
10
66.15
20
21.5325
11
47.85
21
21.5325
0
LINE
8
0
10
47.85
20
21.5325
11
47.85
21
3.2325
0
LINE
8
0
10
47.85
20
22.2825
11
66.15
21
22.2825
0
LINE
8
0
10
66.15
20
22.2825
11
66.15
21
40.5825
0
LINE
8
0
10
66.15
20
40.5825
11
47.85
21
40.5825
0
LINE
8
0
10
47.85
20
40.5825
11
47.85
21
22.2825
0
LINE
8
0
10
47.85
20
41.3325
11
66.15
21
41.3325
0
LINE
8
0
10
66.15
20
41.3325
11
66.15
21
59.6325
0
LINE
8
0
10
66.15
20
59.6325
11
47.85
21
59.6325
0
LINE
8
0
10
47.85
20
59.6325
11
47.85
21
41.3325
0
LINE
8
0
10
66.85
20
0.375
11
85.15
21
0.375
0
LINE
8
0
10
85.15
20
0.375
11
85.15
21
18.675
0
LINE
8
0
10
85.15
20
18.675
11
66.85
21
18.675
0
LINE
8
0
10
66.85
20
18.675
11
66.85
21
0.375
0
LINE
8
0
10
66.85
20
19.425
11
85.15
21
19.425
0
LINE
8
0
10
85.15
20
19.425
11
85.15
21
37.725
0
LINE
8
0
10
85.15
20
37.725
11
66.85
21
37.725
0
LINE
8
0
10
66.85
20
37.725
11
66.85
21
19.425
0
LINE
8
0
10
66.85
20
38.475
11
85.15
21
38.475
0
LINE
8
0
10
85.15
20
38.475
11
85.15
21
56.775
0
LINE
8
0
10
85.15
20
56.775
11
66.85
21
56.775
0
LINE
8
0
10
66.85
20
56.775
11
66.85
21
38.475
0
LINE
8
0
10
38.325
20
-18.19875
11
56.625
21
-18.19875
0
LINE
8
0
10
56.625
20
-18.19875
11
56.625
21
0.10125
0
LINE
8
0
10
56.625
20
0.10125
11
38.325
21
0.10125
0
LINE
8
0
10
38.325
20
0.10125
11
38.325
21
-18.19875
0
LINE
8
0
10
58.1988547
20
-18.4059519
11
75.8752973
21
-23.1423405
0
LINE
8
0
10
75.8752973
20
-23.1423405
11
80.6116859
21
-5.4658979
0
LINE
8
0
10
80.6116859
20
-5.4658979
11
62.9352433
21
-0.7295093
0
LINE
8
0
10
62.9352433
20
-0.7295093
11
58.1988547
21
-18.4059519
0
LINE
8
0
10
77.3418965
20
-23.7498257
11
93.1901613
21
-32.8998257
0
LINE
8
0
10
93.1901613
20
-32.8998257
11
102.3401613
21
-17.0515609
0
LINE
8
0
10
102.3401613
20
-17.0515609
11
86.4918965
21
-7.9015609
0
LINE
8
0
10
86.4918965
20
-7.9015609
11
77.3418965
21
-23.7498257
0
ENDSEC
0
EOF