0
SECTION
2
HEADER
9
$INSUNITS
70
4
0
ENDSEC
0
SECTION
2
TABLES
0
TABLE
2
LTYPE
0
LTYPE
72
65
70
64
2
CONTINUOUS
3
______
73
0
40
0
0
ENDTAB
0
TABLE
2
LAYER
0
ENDTAB
0
ENDSEC
0
SECTION
2
ENTITIES
0
LINE
8
0
10
-7.15
20
-7.9
11
7.15
21
-7.9
0
LINE
8
0
10
7.15
20
-7.9
11
7.15
21
7.9
0
LINE
8
0
10
7.15
20
7.9
11
-7.15
21
7.9
0
LINE
8
0
10
-7.15
20
7.9
11
-7.15
21
-7.9
0
LINE
8
0
10
-7.15
20
11.15
11
7.15
21
11.15
0
LINE
8
0
10
7.15
20
11.15
11
7.15
21
26.95
0
LINE
8
0
10
7.15
20
26.95
11
-7.15
21
26.95
0
LINE
8
0
10
-7.15
20
26.95
11
-7.15
21
11.15
0
LINE
8
0
10
-7.15
20
30.2
11
7.15
21
30.2
0
LINE
8
0
10
7.15
20
30.2
11
7.15
21
46
0
LINE
8
0
10
7.15
20
46
11
-7.15
21
46
0
LINE
8
0
10
-7.15
20
46
11
-7.15
21
30.2
0
LINE
8
0
10
11.85
20
8.2925
11
26.15
21
8.2925
0
LINE
8
0
10
26.15
20
8.2925
11
26.15
21
24.0925
0
LINE
8
0
10
26.15
20
24.0925
11
11.85
21
24.0925
0
LINE
8
0
10
11.85
20
24.0925
11
11.85
21
8.2925
0
LINE
8
0
10
11.85
20
27.3425
11
26.15
21
27.3425
0
LINE
8
0
10
26.15
20
27.3425
11
26.15
21
43.1425
0
LINE
8
0
10
26.15
20
43.1425
11
11.85
21
43.1425
0
LINE
8
0
10
11.85
20
43.1425
11
11.85
21
27.3425
0
LINE
8
0
10
11.85
20
46.3925
11
26.15
21
46.3925
0
LINE
8
0
10
26.15
20
46.3925
11
26.15
21
62.1925
0
LINE
8
0
10
26.15
20
62.1925
11
11.85
21
62.1925
0
LINE
8
0
10
11.85
20
62.1925
11
11.85
21
46.3925
0
LINE
8
0
10
30.85
20
14.96
11
45.15
21
14.96
0
LINE
8
0
10
45.15
20
14.96
11
45.15
21
30.76
0
LINE
8
0
10
45.15
20
30.76
11
30.85
21
30.76
0
LINE
8
0
10
30.85
20
30.76
11
30.85
21
14.96
0
LINE
8
0
10
30.85
20
34.01
11
45.15
21
34.01
0
LINE
8
0
10
45.15
20
34.01
11
45.15
21
49.81
0
LINE
8
0
10
45.15
20
49.81
11
30.85
21
49.81
0
LINE
8
0
10
30.85
20
49.81
11
30.85
21
34.01
0
LINE
8
0
10
30.85
20
53.06
11
45.15
21
53.06
0
LINE
8
0
10
45.15
20
53.06
11
45.15
21
68.86
0
LINE
8
0
10
45.15
20
68.86
11
30.85
21
68.86
0
LINE
8
0
10
30.85
20
68.86
11
30.85
21
53.06
0
LINE
8
0
10
49.85
20
4.4825
11
64.15
21
4.4825
0
LINE
8
0
10
64.15
20
4.4825
11
64.15
21
20.2825
0
LINE
8
0
10
64.15
20
20.2825
11
49.85
21
20.2825
0
LINE
8
0
10
49.85
20
20.2825
11
49.85
21
4.4825
0
LINE
8
0
10
49.85
20
23.5325
11
64.15
21
23.5325
0
LINE
8
0
10
64.15
20
23.5325
11
64.15
21
39.3325
0
LINE
8
0
10
64.15
20
39.3325
11
49.85
21
39.3325
0
LINE
8
0
10
49.85
20
39.3325
11
49.85
21
23.5325
0
LINE
8
0
10
49.85
20
42.5825
11
64.15
21
42.5825
0
LINE
8
0
10
64.15
20
42.5825
11
64.15
21
58.3825
0
LINE
8
0
10
64.15
20
58.3825
11
49.85
21
58.3825
0
LINE
8
0
10
49.85
20
58.3825
11
49.85
21
42.5825
0
LINE
8
0
10
68.85
20
1.625
11
83.15
21
1.625
0
LINE
8
0
10
83.15
20
1.625
11
83.15
21
17.425
0
LINE
8
0
10
83.15
20
17.425
11
68.85
21
17.425
0
LINE
8
0
10
68.85
20
17.425
11
68.85
21
1.625
0
LINE
8
0
10
68.85
20
20.675
11
83.15
21
20.675
0
LINE
8
0
10
83.15
20
20.675
11
83.15
21
36.475
0
LINE
8
0
10
83.15
20
36.475
11
68.85
21
36.475
0
LINE
8
0
10
68.85
20
36.475
11
68.85
21
20.675
0
LINE
8
0
10
68.85
20
39.725
11
83.15
21
39.725
0
LINE
8
0
10
83.15
20
39.725
11
83.15
21
55.525
0
LINE
8
0
10
83.15
20
55.525
11
68.85
21
55.525
0
LINE
8
0
10
68.85
20
55.525
11
68.85
21
39.725
0
LINE
8
0
10
40.325
20
-16.94875
11
54.625
21
-16.94875
0
LINE
8
0
10
54.625
20
-16.94875
11
54.625
21
-1.14875
0
LINE
8
0
10
54.625
20
-1.14875
11
40.325
21
-1.14875
0
LINE
8
0
10
40.325
20
-1.14875
11
40.325
21
-16.94875
0
LINE
8
0
10
60.4542302
20
-17.7161828
11
74.2669695
21
-21.4172951
0
LINE
8
0
10
74.2669695
20
-21.4172951
11
78.3563104
21
-6.155667
0
LINE
8
0
10
78.3563104
20
-6.155667
11
64.5435711
21
-2.4545547
0
LINE
8
0
10
64.5435711
20
-2.4545547
11
60.4542302
21
-17.7161828
0
LINE
8
0
10
79.6989473
20
-23.667294
11
92.0831105
21
-30.817294
0
LINE
8
0
10
92.0831105
20
-30.817294
11
99.9831105
21
-17.1340926
0
LINE
8
0
10
99.9831105
20
-17.1340926
11
87.5989473
21
-9.9840926
0
LINE
8
0
10
87.5989473
20
-9.9840926
11
79.6989473
21
-23.667294
0
ENDSEC
0
EOF