0
SECTION
2
HEADER
9
$INSUNITS
70
4
0
ENDSEC
0
SECTION
2
TABLES
0
TABLE
2
LTYPE
0
LTYPE
72
65
70
64
2
CONTINUOUS
3
______
73
0
40
0
0
ENDTAB
0
TABLE
2
LAYER
0
ENDTAB
0
ENDSEC
0
SECTION
2
ENTITIES
0
LINE
8
0
10
-7
20
-7
11
7
21
-7
0
LINE
8
0
10
7
20
-7
11
7
21
7
0
LINE
8
0
10
7
20
7
11
-7
21
7
0
LINE
8
0
10
-7
20
7
11
-7
21
-7
0
LINE
8
0
10
-7
20
12.05
11
7
21
12.05
0
LINE
8
0
10
7
20
12.05
11
7
21
26.05
0
LINE
8
0
10
7
20
26.05
11
-7
21
26.05
0
LINE
8
0
10
-7
20
26.05
11
-7
21
12.05
0
LINE
8
0
10
-7
20
31.1
11
7
21
31.1
0
LINE
8
0
10
7
20
31.1
11
7
21
45.1
0
LINE
8
0
10
7
20
45.1
11
-7
21
45.1
0
LINE
8
0
10
-7
20
45.1
11
-7
21
31.1
0
LINE
8
0
10
12
20
9.1925
11
26
21
9.1925
0
LINE
8
0
10
26
20
9.1925
11
26
21
23.1925
0
LINE
8
0
10
26
20
23.1925
11
12
21
23.1925
0
LINE
8
0
10
12
20
23.1925
11
12
21
9.1925
0
LINE
8
0
10
12
20
28.2425
11
26
21
28.2425
0
LINE
8
0
10
26
20
28.2425
11
26
21
42.2425
0
LINE
8
0
10
26
20
42.2425
11
12
21
42.2425
0
LINE
8
0
10
12
20
42.2425
11
12
21
28.2425
0
LINE
8
0
10
12
20
47.2925
11
26
21
47.2925
0
LINE
8
0
10
26
20
47.2925
11
26
21
61.2925
0
LINE
8
0
10
26
20
61.2925
11
12
21
61.2925
0
LINE
8
0
10
12
20
61.2925
11
12
21
47.2925
0
LINE
8
0
10
31
20
15.86
11
45
21
15.86
0
LINE
8
0
10
45
20
15.86
11
45
21
29.86
0
LINE
8
0
10
45
20
29.86
11
31
21
29.86
0
LINE
8
0
10
31
20
29.86
11
31
21
15.86
0
LINE
8
0
10
31
20
34.91
11
45
21
34.91
0
LINE
8
0
10
45
20
34.91
11
45
21
48.91
0
LINE
8
0
10
45
20
48.91
11
31
21
48.91
0
LINE
8
0
10
31
20
48.91
11
31
21
34.91
0
LINE
8
0
10
31
20
53.96
11
45
21
53.96
0
LINE
8
0
10
45
20
53.96
11
45
21
67.96
0
LINE
8
0
10
45
20
67.96
11
31
21
67.96
0
LINE
8
0
10
31
20
67.96
11
31
21
53.96
0
LINE
8
0
10
50
20
5.3825
11
64
21
5.3825
0
LINE
8
0
10
64
20
5.3825
11
64
21
19.3825
0
LINE
8
0
10
64
20
19.3825
11
50
21
19.3825
0
LINE
8
0
10
50
20
19.3825
11
50
21
5.3825
0
LINE
8
0
10
50
20
24.4325
11
64
21
24.4325
0
LINE
8
0
10
64
20
24.4325
11
64
21
38.4325
0
LINE
8
0
10
64
20
38.4325
11
50
21
38.4325
0
LINE
8
0
10
50
20
38.4325
11
50
21
24.4325
0
LINE
8
0
10
50
20
43.4825
11
64
21
43.4825
0
LINE
8
0
10
64
20
43.4825
11
64
21
57.4825
0
LINE
8
0
10
64
20
57.4825
11
50
21
57.4825
0
LINE
8
0
10
50
20
57.4825
11
50
21
43.4825
0
LINE
8
0
10
69
20
2.525
11
83
21
2.525
0
LINE
8
0
10
83
20
2.525
11
83
21
16.525
0
LINE
8
0
10
83
20
16.525
11
69
21
16.525
0
LINE
8
0
10
69
20
16.525
11
69
21
2.525
0
LINE
8
0
10
69
20
21.575
11
83
21
21.575
0
LINE
8
0
10
83
20
21.575
11
83
21
35.575
0
LINE
8
0
10
83
20
35.575
11
69
21
35.575
0
LINE
8
0
10
69
20
35.575
11
69
21
21.575
0
LINE
8
0
10
69
20
40.625
11
83
21
40.625
0
LINE
8
0
10
83
20
40.625
11
83
21
54.625
0
LINE
8
0
10
83
20
54.625
11
69
21
54.625
0
LINE
8
0
10
69
20
54.625
11
69
21
40.625
0
LINE
8
0
10
40.475
20
-16.04875
11
54.475
21
-16.04875
0
LINE
8
0
10
54.475
20
-16.04875
11
54.475
21
-2.04875
0
LINE
8
0
10
54.475
20
-2.04875
11
40.475
21
-2.04875
0
LINE
8
0
10
40.475
20
-2.04875
11
40.475
21
-16.04875
0
LINE
8
0
10
60.8320562
20
-16.8856724
11
74.3550178
21
-20.509139
0
LINE
8
0
10
74.3550178
20
-20.509139
11
77.9784844
21
-6.9861774
0
LINE
8
0
10
77.9784844
20
-6.9861774
11
64.4555228
21
-3.3627108
0
LINE
8
0
10
64.4555228
20
-3.3627108
11
60.8320562
21
-16.8856724
0
LINE
8
0
10
80.2788511
20
-22.9628711
11
92.4032067
21
-29.9628711
0
LINE
8
0
10
92.4032067
20
-29.9628711
11
99.4032067
21
-17.8385155
0
LINE
8
0
10
99.4032067
20
-17.8385155
11
87.2788511
21
-10.8385155
0
LINE
8
0
10
87.2788511
20
-10.8385155
11
80.2788511
21
-22.9628711
0
ENDSEC
0
EOF