0
SECTION
2
HEADER
9
$INSUNITS
70
4
0
ENDSEC
0
SECTION
2
TABLES
0
TABLE
2
LTYPE
0
LTYPE
72
65
70
64
2
CONTINUOUS
3
______
73
0
40
0
0
ENDTAB
0
TABLE
2
LAYER
0
ENDTAB
0
ENDSEC
0
SECTION
2
ENTITIES
0
LINE
8
0
10
-14
20
-17.5
11
27.225
21
-17.5
0
LINE
8
0
10
28.475
20
-22.54875
11
28.475
21
-18.75
0
ARC
8
0
10
32.475
20
-22.54875
40
4
50
180
51
270
0
LINE
8
0
10
32.475
20
-26.54875
11
56.1617025
21
-26.54875
0
LINE
8
0
10
56.4852263
20
-26.5913427
11
73.2666471
21
-31.0879109
0
LINE
8
0
10
73.5681234
20
-31.2127864
11
93.2153846
21
-42.5561379
0
ARC
8
0
10
95.2153846
20
-39.0920363
40
4
50
240.0000004
51
330.0000001
0
LINE
8
0
10
98.6794862
20
-41.0920363
11
113.7581642
21
-14.975
0
LINE
8
0
10
115
20
-14.975
11
113.7581642
21
-14.975
0
ARC
8
0
10
115
20
-10.975
40
4
50
270
51
0
0
LINE
8
0
10
119
20
-10.975
11
119
21
61.125
0
ARC
8
0
10
115
20
61.125
40
4
50
0
51
90
0
LINE
8
0
10
75.6731621
20
65.125
11
115
21
65.125
0
ARC
8
0
10
71
20
63.9825
40
4
50
27.1109019
51
90
0
LINE
8
0
10
57.25
20
67.9825
11
71
21
67.9825
0
LINE
8
0
10
56
20
74.46
11
56
21
69.2325
0
ARC
8
0
10
52
20
74.46
40
4
50
360
51
90
0
LINE
8
0
10
24
20
78.46
11
52
21
78.46
0
ARC
8
0
10
24
20
74.46
40
4
50
90
51
180
0
LINE
8
0
10
20
20
73.0425
11
20
21
74.46
0
LINE
8
0
10
5
20
71.7925
11
18.75
21
71.7925
0
ARC
8
0
10
5
20
67.7925
40
4
50
90
51
180
0
LINE
8
0
10
1
20
56.85
11
1
21
67.7925
0
LINE
8
0
10
-14
20
55.6
11
-0.25
21
55.6
0
ARC
8
0
10
-14
20
51.6
40
4
50
90
51
180
0
LINE
8
0
10
-18
20
-13.5
11
-18
21
51.6
0
ARC
8
0
10
-14
20
-13.5
40
4
50
180
51
270
0
ARC
8
0
10
27.225
20
-18.75
40
1.25
50
0
51
90
0
ARC
8
0
10
56.1617025
20
-27.79875
40
1.25
50
75.0000021
51
90
0
ARC
8
0
10
72.9431234
20
-32.2953182
40
1.25
50
59.9999999
51
75.0000021
0
ARC
8
0
10
93.8403846
20
-41.4736062
40
1.25
50
239.9999999
51
240.0000004
0
ARC
8
0
10
75.6731621
20
66.375
40
1.25
50
207.1109019
51
270
0
ARC
8
0
10
57.25
20
69.2325
40
1.25
50
180
51
270
0
ARC
8
0
10
18.75
20
73.0425
40
1.25
50
270
51
0
0
ARC
8
0
10
-0.25
20
56.85
40
1.25
50
270
51
0
0
LINE
8
0
10
-14
20
-14.5
11
30.225
21
-14.5
0
LINE
8
0
10
31.475
20
-22.54875
11
31.475
21
-15.75
0
ARC
8
0
10
32.475
20
-22.54875
40
1
50
180
51
270
0
LINE
8
0
10
32.475
20
-23.54875
11
56.5566601
21
-23.54875
0
LINE
8
0
10
56.8801839
20
-23.5913427
11
74.4246038
21
-28.2923558
0
LINE
8
0
10
74.72608
20
-28.4172314
11
94.7153846
21
-39.9580617
0
ARC
8
0
10
95.2153846
20
-39.0920363
40
1
50
239.9999994
51
330.0000001
0
LINE
8
0
10
96.08141
20
-39.5920363
11
111.6652694
21
-12.6
0
LINE
8
0
10
115
20
-11.975
11
112.7478012
21
-11.975
0
ARC
8
0
10
115
20
-10.975
40
1
50
270
51
0
0
LINE
8
0
10
116
20
-10.975
11
116
21
61.125
0
ARC
8
0
10
115
20
61.125
40
1
50
0
51
90
0
LINE
8
0
10
73.25
20
62.125
11
115
21
62.125
0
LINE
8
0
10
72
20
63.9825
11
72
21
63.375
0
ARC
8
0
10
71
20
63.9825
40
1
50
360
51
90
0
LINE
8
0
10
54.25
20
64.9825
11
71
21
64.9825
0
LINE
8
0
10
53
20
74.46
11
53
21
66.2325
0
ARC
8
0
10
52
20
74.46
40
1
50
360
51
90
0
LINE
8
0
10
24
20
75.46
11
52
21
75.46
0
ARC
8
0
10
24
20
74.46
40
1
50
90
51
180
0
LINE
8
0
10
23
20
70.0425
11
23
21
74.46
0
LINE
8
0
10
5
20
68.7925
11
21.75
21
68.7925
0
ARC
8
0
10
5
20
67.7925
40
1
50
90
51
180
0
LINE
8
0
10
4
20
53.85
11
4
21
67.7925
0
LINE
8
0
10
-14
20
52.6
11
2.75
21
52.6
0
ARC
8
0
10
-14
20
51.6
40
1
50
90
51
180
0
LINE
8
0
10
-15
20
-13.5
11
-15
21
51.6
0
ARC
8
0
10
-14
20
-13.5
40
1
50
180
51
270
0
ARC
8
0
10
30.225
20
-15.75
40
1.25
50
0
51
90
0
ARC
8
0
10
56.5566601
20
-24.79875
40
1.25
50
75.0000021
51
90
0
ARC
8
0
10
74.10108
20
-29.4997631
40
1.25
50
59.9999999
51
75.0000021
0
ARC
8
0
10
112.7478012
20
-13.225
40
1.25
50
90
51
149.9999999
0
ARC
8
0
10
73.25
20
63.375
40
1.25
50
180
51
270
0
ARC
8
0
10
54.25
20
66.2325
40
1.25
50
180
51
270
0
ARC
8
0
10
21.75
20
70.0425
40
1.25
50
270
51
0
0
ARC
8
0
10
2.75
20
53.85
40
1.25
50
270
51
0
0
ENDSEC
0
EOF