0
SECTION
2
HEADER
9
$INSUNITS
70
4
0
ENDSEC
0
SECTION
2
TABLES
0
TABLE
2
LTYPE
0
LTYPE
72
65
70
64
2
CONTINUOUS
3
______
73
0
40
0
0
ENDTAB
0
TABLE
2
LAYER
0
ENDTAB
0
ENDSEC
0
SECTION
2
ENTITIES
0
LINE
8
0
10
-10.25
20
-11
11
34.725
21
-11
0
LINE
8
0
10
-11.5
20
-9.75
11
-11.5
21
47.85
0
LINE
8
0
10
-10.25
20
49.1
11
6.25
21
49.1
0
LINE
8
0
10
8.75
20
65.2925
11
25.25
21
65.2925
0
LINE
8
0
10
7.5
20
50.35
11
7.5
21
64.0425
0
LINE
8
0
10
27.75
20
71.96
11
48.25
21
71.96
0
LINE
8
0
10
49.5
20
70.71
11
49.5
21
62.7325
0
LINE
8
0
10
26.5
20
66.5425
11
26.5
21
70.71
0
LINE
8
0
10
50.75
20
61.4825
11
67.25
21
61.4825
0
LINE
8
0
10
68.5
20
60.2325
11
68.5
21
59.875
0
LINE
8
0
10
69.75
20
58.625
11
84.25
21
58.625
0
LINE
8
0
10
37.225
20
-20.04875
11
57.0174436
21
-20.04875
0
LINE
8
0
10
35.975
20
-18.79875
11
35.975
21
-12.25
0
LINE
8
0
10
57.3409674
20
-20.0913427
11
75.7755537
21
-25.0308752
0
LINE
8
0
10
94.925321
20
-34.5944409
11
106.8391072
21
-13.9591579
0
LINE
8
0
10
76.0770299
20
-25.1557507
11
93.2177892
21
-35.0519727
0
LINE
8
0
10
85.5
20
-0.975
11
85.5
21
57.375
0
LINE
8
0
10
86.1560639
20
-1.3292745
11
106.3505115
21
-12.2342762
0
ARC
8
0
10
34.725
20
-12.25
40
1.25
50
0
51
90
0
ARC
8
0
10
37.225
20
-18.79875
40
1.25
50
180
51
270
0
ARC
8
0
10
57.0174436
20
-21.29875
40
1.25
50
75.0000021
51
90
0
ARC
8
0
10
75.4520299
20
-26.2382825
40
1.25
50
59.9999999
51
75.0000021
0
ARC
8
0
10
93.8427892
20
-33.9694409
40
1.25
50
239.9999999
51
329.9999999
0
ARC
8
0
10
105.7565754
20
-13.3341579
40
1.25
50
329.9999999
51
421.6080377
0
ARC
8
0
10
86.75
20
-0.2293928
40
1.25
50
241.6080377
51
241.6309545
0
ARC
8
0
10
84.25
20
57.375
40
1.25
50
0
51
90
0
ARC
8
0
10
69.75
20
59.875
40
1.25
50
180
51
270
0
ARC
8
0
10
67.25
20
60.2325
40
1.25
50
0
51
90
0
ARC
8
0
10
50.75
20
62.7325
40
1.25
50
180
51
270
0
ARC
8
0
10
48.25
20
70.71
40
1.25
50
0
51
90
0
ARC
8
0
10
27.75
20
70.71
40
1.25
50
90
51
180
0
ARC
8
0
10
25.25
20
66.5425
40
1.25
50
270
51
0
0
ARC
8
0
10
8.75
20
64.0425
40
1.25
50
90
51
180
0
ARC
8
0
10
6.25
20
50.35
40
1.25
50
270
51
0
0
ARC
8
0
10
-10.25
20
47.85
40
1.25
50
90
51
180
0
ARC
8
0
10
-10.25
20
-9.75
40
1.25
50
180
51
270
0
LINE
8
0
10
85.5
20
-0.975
11
86.155624
21
-1.3290369
0
LINE
8
0
10
106.3505115
20
-12.2342762
11
106.3509514
21
-12.2345138
0
LINE
8
0
10
-7.15
20
-7.15
11
7.15
21
-7.15
0
LINE
8
0
10
7.15
20
-7.15
11
7.15
21
7.15
0
LINE
8
0
10
7.15
20
7.15
11
-7.15
21
7.15
0
LINE
8
0
10
-7.15
20
7.15
11
-7.15
21
-7.15
0
LINE
8
0
10
-7.15
20
11.9
11
7.15
21
11.9
0
LINE
8
0
10
7.15
20
11.9
11
7.15
21
26.2
0
LINE
8
0
10
7.15
20
26.2
11
-7.15
21
26.2
0
LINE
8
0
10
-7.15
20
26.2
11
-7.15
21
11.9
0
LINE
8
0
10
-7.15
20
30.95
11
7.15
21
30.95
0
LINE
8
0
10
7.15
20
30.95
11
7.15
21
45.25
0
LINE
8
0
10
7.15
20
45.25
11
-7.15
21
45.25
0
LINE
8
0
10
-7.15
20
45.25
11
-7.15
21
30.95
0
LINE
8
0
10
11.85
20
9.0425
11
26.15
21
9.0425
0
LINE
8
0
10
26.15
20
9.0425
11
26.15
21
23.3425
0
LINE
8
0
10
26.15
20
23.3425
11
11.85
21
23.3425
0
LINE
8
0
10
11.85
20
23.3425
11
11.85
21
9.0425
0
LINE
8
0
10
11.85
20
28.0925
11
26.15
21
28.0925
0
LINE
8
0
10
26.15
20
28.0925
11
26.15
21
42.3925
0
LINE
8
0
10
26.15
20
42.3925
11
11.85
21
42.3925
0
LINE
8
0
10
11.85
20
42.3925
11
11.85
21
28.0925
0
LINE
8
0
10
11.85
20
47.1425
11
26.15
21
47.1425
0
LINE
8
0
10
26.15
20
47.1425
11
26.15
21
61.4425
0
LINE
8
0
10
26.15
20
61.4425
11
11.85
21
61.4425
0
LINE
8
0
10
11.85
20
61.4425
11
11.85
21
47.1425
0
LINE
8
0
10
30.85
20
15.71
11
45.15
21
15.71
0
LINE
8
0
10
45.15
20
15.71
11
45.15
21
30.01
0
LINE
8
0
10
45.15
20
30.01
11
30.85
21
30.01
0
LINE
8
0
10
30.85
20
30.01
11
30.85
21
15.71
0
LINE
8
0
10
30.85
20
34.76
11
45.15
21
34.76
0
LINE
8
0
10
45.15
20
34.76
11
45.15
21
49.06
0
LINE
8
0
10
45.15
20
49.06
11
30.85
21
49.06
0
LINE
8
0
10
30.85
20
49.06
11
30.85
21
34.76
0
LINE
8
0
10
30.85
20
53.81
11
45.15
21
53.81
0
LINE
8
0
10
45.15
20
53.81
11
45.15
21
68.11
0
LINE
8
0
10
45.15
20
68.11
11
30.85
21
68.11
0
LINE
8
0
10
30.85
20
68.11
11
30.85
21
53.81
0
LINE
8
0
10
49.85
20
5.2325
11
64.15
21
5.2325
0
LINE
8
0
10
64.15
20
5.2325
11
64.15
21
19.5325
0
LINE
8
0
10
64.15
20
19.5325
11
49.85
21
19.5325
0
LINE
8
0
10
49.85
20
19.5325
11
49.85
21
5.2325
0
LINE
8
0
10
49.85
20
24.2825
11
64.15
21
24.2825
0
LINE
8
0
10
64.15
20
24.2825
11
64.15
21
38.5825
0
LINE
8
0
10
64.15
20
38.5825
11
49.85
21
38.5825
0
LINE
8
0
10
49.85
20
38.5825
11
49.85
21
24.2825
0
LINE
8
0
10
49.85
20
43.3325
11
64.15
21
43.3325
0
LINE
8
0
10
64.15
20
43.3325
11
64.15
21
57.6325
0
LINE
8
0
10
64.15
20
57.6325
11
49.85
21
57.6325
0
LINE
8
0
10
49.85
20
57.6325
11
49.85
21
43.3325
0
LINE
8
0
10
68.85
20
2.375
11
83.15
21
2.375
0
LINE
8
0
10
83.15
20
2.375
11
83.15
21
16.675
0
LINE
8
0
10
83.15
20
16.675
11
68.85
21
16.675
0
LINE
8
0
10
68.85
20
16.675
11
68.85
21
2.375
0
LINE
8
0
10
68.85
20
21.425
11
83.15
21
21.425
0
LINE
8
0
10
83.15
20
21.425
11
83.15
21
35.725
0
LINE
8
0
10
83.15
20
35.725
11
68.85
21
35.725
0
LINE
8
0
10
68.85
20
35.725
11
68.85
21
21.425
0
LINE
8
0
10
68.85
20
40.475
11
83.15
21
40.475
0
LINE
8
0
10
83.15
20
40.475
11
83.15
21
54.775
0
LINE
8
0
10
83.15
20
54.775
11
68.85
21
54.775
0
LINE
8
0
10
68.85
20
54.775
11
68.85
21
40.475
0
LINE
8
0
10
40.325
20
-16.19875
11
54.625
21
-16.19875
0
LINE
8
0
10
54.625
20
-16.19875
11
54.625
21
-1.89875
0
LINE
8
0
10
54.625
20
-1.89875
11
40.325
21
-1.89875
0
LINE
8
0
10
40.325
20
-1.89875
11
40.325
21
-16.19875
0
LINE
8
0
10
60.6483445
20
-16.9917384
11
74.4610838
21
-20.6928507
0
LINE
8
0
10
74.4610838
20
-20.6928507
11
78.1621961
21
-6.8801114
0
LINE
8
0
10
78.1621961
20
-6.8801114
11
64.3494568
21
-3.1789991
0
LINE
8
0
10
64.3494568
20
-3.1789991
11
60.6483445
21
-16.9917384
0
LINE
8
0
10
80.0739473
20
-23.0177749
11
92.4581105
21
-30.1677749
0
LINE
8
0
10
92.4581105
20
-30.1677749
11
99.6081105
21
-17.7836117
0
LINE
8
0
10
99.6081105
20
-17.7836117
11
87.2239473
21
-10.6336117
0
LINE
8
0
10
87.2239473
20
-10.6336117
11
80.0739473
21
-23.0177749
0
CIRCLE
8
0
10
9.75
20
44.7425
40
2
0
CIRCLE
8
0
10
9.5
20
3
40
2
0
CIRCLE
8
0
10
66.4
20
40.875
40
2
0
CIRCLE
8
0
10
58.5
20
-9.6175
40
2
0
CIRCLE
8
0
10
80.0332912
20
-14.7381933
40
2
0
ENDSEC
0
EOF