0
SECTION
2
HEADER
9
$INSUNITS
70
4
0
ENDSEC
0
SECTION
2
TABLES
0
TABLE
2
LTYPE
0
LTYPE
72
65
70
64
2
CONTINUOUS
3
______
73
0
40
0
0
ENDTAB
0
TABLE
2
LAYER
0
ENDTAB
0
ENDSEC
0
SECTION
2
ENTITIES
0
LINE
8
0
10
-12.75
20
-13.5
11
31.225
21
-13.5
0
LINE
8
0
10
-14
20
-12.25
11
-14
21
50.35
0
LINE
8
0
10
-12.75
20
51.6
11
3.75
21
51.6
0
LINE
8
0
10
6.25
20
67.7925
11
22.75
21
67.7925
0
LINE
8
0
10
5
20
52.85
11
5
21
66.5425
0
LINE
8
0
10
25.25
20
74.46
11
50.75
21
74.46
0
LINE
8
0
10
52
20
73.21
11
52
21
65.2325
0
LINE
8
0
10
24
20
69.0425
11
24
21
73.21
0
LINE
8
0
10
53.25
20
63.9825
11
69.75
21
63.9825
0
LINE
8
0
10
71
20
62.7325
11
71
21
62.375
0
LINE
8
0
10
72.25
20
61.125
11
86.25
21
61.125
0
LINE
8
0
10
33.725
20
-22.54875
11
56.6883125
21
-22.54875
0
LINE
8
0
10
32.475
20
-21.29875
11
32.475
21
-14.75
0
LINE
8
0
10
57.0118362
20
-22.5913427
11
74.8105895
21
-27.3605043
0
LINE
8
0
10
95.8403846
20
-38.0095045
11
110.7942193
21
-12.1087031
0
LINE
8
0
10
75.1120657
20
-27.4853798
11
94.1328528
21
-38.4670363
0
LINE
8
0
10
87.5
20
-0.975
11
87.5
21
59.875
0
LINE
8
0
10
87.5
20
-0.975
11
110.5
21
-11.475
0
LINE
8
0
10
110.5
20
-11.475
11
110.7942193
21
-12.1087031
0
ARC
8
0
10
31.225
20
-14.75
40
1.25
50
0
51
90
0
ARC
8
0
10
33.725
20
-21.29875
40
1.25
50
180
51
270
0
ARC
8
0
10
56.6883125
20
-23.79875
40
1.25
50
75.0000021
51
90
0
ARC
8
0
10
74.4870657
20
-28.5679116
40
1.25
50
59.9999999
51
75.0000021
0
ARC
8
0
10
94.7578528
20
-37.3845045
40
1.25
50
239.9999999
51
329.9999999
0
ARC
8
0
10
86.25
20
59.875
40
1.25
50
0
51
90
0
ARC
8
0
10
72.25
20
62.375
40
1.25
50
180
51
270
0
ARC
8
0
10
69.75
20
62.7325
40
1.25
50
0
51
90
0
ARC
8
0
10
53.25
20
65.2325
40
1.25
50
180
51
270
0
ARC
8
0
10
50.75
20
73.21
40
1.25
50
0
51
90
0
ARC
8
0
10
25.25
20
73.21
40
1.25
50
90
51
180
0
ARC
8
0
10
22.75
20
69.0425
40
1.25
50
270
51
0
0
ARC
8
0
10
6.25
20
66.5425
40
1.25
50
90
51
180
0
ARC
8
0
10
3.75
20
52.85
40
1.25
50
270
51
0
0
ARC
8
0
10
-12.75
20
50.35
40
1.25
50
90
51
180
0
ARC
8
0
10
-12.75
20
-12.25
40
1.25
50
180
51
270
0
LINE
8
0
10
-7.15
20
-7.15
11
7.15
21
-7.15
0
LINE
8
0
10
7.15
20
-7.15
11
7.15
21
7.15
0
LINE
8
0
10
7.15
20
7.15
11
-7.15
21
7.15
0
LINE
8
0
10
-7.15
20
7.15
11
-7.15
21
-7.15
0
LINE
8
0
10
-7.15
20
11.9
11
7.15
21
11.9
0
LINE
8
0
10
7.15
20
11.9
11
7.15
21
26.2
0
LINE
8
0
10
7.15
20
26.2
11
-7.15
21
26.2
0
LINE
8
0
10
-7.15
20
26.2
11
-7.15
21
11.9
0
LINE
8
0
10
-7.15
20
30.95
11
7.15
21
30.95
0
LINE
8
0
10
7.15
20
30.95
11
7.15
21
45.25
0
LINE
8
0
10
7.15
20
45.25
11
-7.15
21
45.25
0
LINE
8
0
10
-7.15
20
45.25
11
-7.15
21
30.95
0
LINE
8
0
10
11.85
20
9.0425
11
26.15
21
9.0425
0
LINE
8
0
10
26.15
20
9.0425
11
26.15
21
23.3425
0
LINE
8
0
10
26.15
20
23.3425
11
11.85
21
23.3425
0
LINE
8
0
10
11.85
20
23.3425
11
11.85
21
9.0425
0
LINE
8
0
10
11.85
20
28.0925
11
26.15
21
28.0925
0
LINE
8
0
10
26.15
20
28.0925
11
26.15
21
42.3925
0
LINE
8
0
10
26.15
20
42.3925
11
11.85
21
42.3925
0
LINE
8
0
10
11.85
20
42.3925
11
11.85
21
28.0925
0
LINE
8
0
10
11.85
20
47.1425
11
26.15
21
47.1425
0
LINE
8
0
10
26.15
20
47.1425
11
26.15
21
61.4425
0
LINE
8
0
10
26.15
20
61.4425
11
11.85
21
61.4425
0
LINE
8
0
10
11.85
20
61.4425
11
11.85
21
47.1425
0
LINE
8
0
10
30.85
20
15.71
11
45.15
21
15.71
0
LINE
8
0
10
45.15
20
15.71
11
45.15
21
30.01
0
LINE
8
0
10
45.15
20
30.01
11
30.85
21
30.01
0
LINE
8
0
10
30.85
20
30.01
11
30.85
21
15.71
0
LINE
8
0
10
30.85
20
34.76
11
45.15
21
34.76
0
LINE
8
0
10
45.15
20
34.76
11
45.15
21
49.06
0
LINE
8
0
10
45.15
20
49.06
11
30.85
21
49.06
0
LINE
8
0
10
30.85
20
49.06
11
30.85
21
34.76
0
LINE
8
0
10
30.85
20
53.81
11
45.15
21
53.81
0
LINE
8
0
10
45.15
20
53.81
11
45.15
21
68.11
0
LINE
8
0
10
45.15
20
68.11
11
30.85
21
68.11
0
LINE
8
0
10
30.85
20
68.11
11
30.85
21
53.81
0
LINE
8
0
10
49.85
20
5.2325
11
64.15
21
5.2325
0
LINE
8
0
10
64.15
20
5.2325
11
64.15
21
19.5325
0
LINE
8
0
10
64.15
20
19.5325
11
49.85
21
19.5325
0
LINE
8
0
10
49.85
20
19.5325
11
49.85
21
5.2325
0
LINE
8
0
10
49.85
20
24.2825
11
64.15
21
24.2825
0
LINE
8
0
10
64.15
20
24.2825
11
64.15
21
38.5825
0
LINE
8
0
10
64.15
20
38.5825
11
49.85
21
38.5825
0
LINE
8
0
10
49.85
20
38.5825
11
49.85
21
24.2825
0
LINE
8
0
10
49.85
20
43.3325
11
64.15
21
43.3325
0
LINE
8
0
10
64.15
20
43.3325
11
64.15
21
57.6325
0
LINE
8
0
10
64.15
20
57.6325
11
49.85
21
57.6325
0
LINE
8
0
10
49.85
20
57.6325
11
49.85
21
43.3325
0
LINE
8
0
10
68.85
20
2.375
11
83.15
21
2.375
0
LINE
8
0
10
83.15
20
2.375
11
83.15
21
16.675
0
LINE
8
0
10
83.15
20
16.675
11
68.85
21
16.675
0
LINE
8
0
10
68.85
20
16.675
11
68.85
21
2.375
0
LINE
8
0
10
68.85
20
21.425
11
83.15
21
21.425
0
LINE
8
0
10
83.15
20
21.425
11
83.15
21
35.725
0
LINE
8
0
10
83.15
20
35.725
11
68.85
21
35.725
0
LINE
8
0
10
68.85
20
35.725
11
68.85
21
21.425
0
LINE
8
0
10
68.85
20
40.475
11
83.15
21
40.475
0
LINE
8
0
10
83.15
20
40.475
11
83.15
21
54.775
0
LINE
8
0
10
83.15
20
54.775
11
68.85
21
54.775
0
LINE
8
0
10
68.85
20
54.775
11
68.85
21
40.475
0
LINE
8
0
10
40.325
20
-16.19875
11
54.625
21
-16.19875
0
LINE
8
0
10
54.625
20
-16.19875
11
54.625
21
-1.89875
0
LINE
8
0
10
54.625
20
-1.89875
11
40.325
21
-1.89875
0
LINE
8
0
10
40.325
20
-1.89875
11
40.325
21
-16.19875
0
LINE
8
0
10
60.6483445
20
-16.9917384
11
74.4610838
21
-20.6928507
0
LINE
8
0
10
74.4610838
20
-20.6928507
11
78.1621961
21
-6.8801114
0
LINE
8
0
10
78.1621961
20
-6.8801114
11
64.3494568
21
-3.1789991
0
LINE
8
0
10
64.3494568
20
-3.1789991
11
60.6483445
21
-16.9917384
0
LINE
8
0
10
80.0739473
20
-23.0177749
11
92.4581105
21
-30.1677749
0
LINE
8
0
10
92.4581105
20
-30.1677749
11
99.6081105
21
-17.7836117
0
LINE
8
0
10
99.6081105
20
-17.7836117
11
87.2239473
21
-10.6336117
0
LINE
8
0
10
87.2239473
20
-10.6336117
11
80.0739473
21
-23.0177749
0
CIRCLE
8
0
10
9.75
20
44.7425
40
1.975
0
CIRCLE
8
0
10
9.5
20
3
40
1.975
0
CIRCLE
8
0
10
66.4
20
40.875
40
1.975
0
CIRCLE
8
0
10
58.5
20
-9.6175
40
1.975
0
CIRCLE
8
0
10
80.0332912
20
-14.7381933
40
1.975
0
ENDSEC
0
EOF