0
SECTION
2
HEADER
9
$INSUNITS
70
4
0
ENDSEC
0
SECTION
2
TABLES
0
TABLE
2
LTYPE
0
LTYPE
72
65
70
64
2
CONTINUOUS
3
______
73
0
40
0
0
ENDTAB
0
TABLE
2
LAYER
0
ENDTAB
0
ENDSEC
0
SECTION
2
ENTITIES
0
LINE
8
0
10
-11.5
20
-15
11
30.725
21
-15
0
LINE
8
0
10
31.975
20
-20.04875
11
31.975
21
-16.25
0
ARC
8
0
10
35.975
20
-20.04875
40
4
50
180
51
270
0
LINE
8
0
10
35.975
20
-24.04875
11
56.4908336
21
-24.04875
0
LINE
8
0
10
56.8143574
20
-24.0913427
11
74.2316113
21
-28.7582817
0
LINE
8
0
10
74.5330875
20
-28.8831573
11
92.300321
21
-39.1410743
0
ARC
8
0
10
94.300321
20
-35.6769727
40
4
50
240
51
330
0
LINE
8
0
10
97.7644226
20
-37.6769727
11
110.1064236
21
-16.3
0
LINE
8
0
10
111.1889553
20
-15.675
11
116
21
-15.675
0
ARC
8
0
10
116
20
-11.675
40
4
50
270
51
360
0
LINE
8
0
10
120
20
-11.675
11
120
21
62.825
0
ARC
8
0
10
116
20
62.825
40
4
50
0
51
90
0
LINE
8
0
10
116
20
66.825
11
84
21
66.825
0
ARC
8
0
10
84
20
62.825
40
4
50
90
51
180
0
LINE
8
0
10
80
20
62.825
11
80
21
62.625
0
LINE
8
0
10
73.1731621
20
62.625
11
80
21
62.625
0
ARC
8
0
10
68.5
20
61.4825
40
4
50
27.1109019
51
90
0
LINE
8
0
10
54.75
20
65.4825
11
68.5
21
65.4825
0
LINE
8
0
10
53.5
20
71.96
11
53.5
21
66.7325
0
ARC
8
0
10
49.5
20
71.96
40
4
50
360
51
90
0
LINE
8
0
10
26.5
20
75.96
11
49.5
21
75.96
0
ARC
8
0
10
26.5
20
71.96
40
4
50
90
51
180
0
LINE
8
0
10
22.5
20
70.5425
11
22.5
21
71.96
0
LINE
8
0
10
7.5
20
69.2925
11
21.25
21
69.2925
0
ARC
8
0
10
7.5
20
65.2925
40
4
50
90
51
180
0
LINE
8
0
10
3.5
20
54.35
11
3.5
21
65.2925
0
LINE
8
0
10
-11.5
20
53.1
11
2.25
21
53.1
0
ARC
8
0
10
-11.5
20
49.1
40
4
50
90
51
180
0
LINE
8
0
10
-15.5
20
-11
11
-15.5
21
49.1
0
ARC
8
0
10
-11.5
20
-11
40
4
50
180
51
270
0
ARC
8
0
10
30.725
20
-16.25
40
1.25
50
0
51
90
0
ARC
8
0
10
56.4908336
20
-25.29875
40
1.25
50
75.0000021
51
90
0
ARC
8
0
10
73.9080875
20
-29.9656891
40
1.25
50
59.9999999
51
75.0000021
0
ARC
8
0
10
111.1889553
20
-16.925
40
1.25
50
90
51
149.9999999
0
ARC
8
0
10
73.1731621
20
63.875
40
1.25
50
207.1109019
51
270
0
ARC
8
0
10
54.75
20
66.7325
40
1.25
50
180
51
270
0
ARC
8
0
10
21.25
20
70.5425
40
1.25
50
270
51
0
0
ARC
8
0
10
2.25
20
54.35
40
1.25
50
270
51
0
0
LINE
8
0
10
-11.5
20
-12
11
33.725
21
-12
0
LINE
8
0
10
34.975
20
-20.04875
11
34.975
21
-13.25
0
ARC
8
0
10
35.975
20
-20.04875
40
1
50
180
51
270
0
LINE
8
0
10
35.975
20
-21.04875
11
56.8857913
21
-21.04875
0
LINE
8
0
10
57.209315
20
-21.0913427
11
75.389568
21
-25.9627268
0
LINE
8
0
10
75.6910442
20
-26.0876023
11
93.800321
21
-36.5429981
0
ARC
8
0
10
94.300321
20
-35.6769727
40
1
50
240.0000004
51
330
0
LINE
8
0
10
95.1663464
20
-36.1769727
11
108.3743728
21
-13.3
0
LINE
8
0
10
109.4569045
20
-12.675
11
116
21
-12.675
0
ARC
8
0
10
116
20
-11.675
40
1
50
270
51
360
0
LINE
8
0
10
117
20
-11.675
11
117
21
62.825
0
ARC
8
0
10
116
20
62.825
40
1
50
0
51
90
0
LINE
8
0
10
116
20
63.825
11
84
21
63.825
0
ARC
8
0
10
84
20
62.825
40
1
50
90
51
180
0
LINE
8
0
10
83
20
62.825
11
83
21
60.875
0
LINE
8
0
10
70.75
20
59.625
11
81.75
21
59.625
0
LINE
8
0
10
69.5
20
61.4825
11
69.5
21
60.875
0
ARC
8
0
10
68.5
20
61.4825
40
1
50
360
51
90
0
LINE
8
0
10
51.75
20
62.4825
11
68.5
21
62.4825
0
LINE
8
0
10
50.5
20
71.96
11
50.5
21
63.7325
0
ARC
8
0
10
49.5
20
71.96
40
1
50
360
51
90
0
LINE
8
0
10
26.5
20
72.96
11
49.5
21
72.96
0
ARC
8
0
10
26.5
20
71.96
40
1
50
90
51
180
0
LINE
8
0
10
25.5
20
67.5425
11
25.5
21
71.96
0
LINE
8
0
10
7.5
20
66.2925
11
24.25
21
66.2925
0
ARC
8
0
10
7.5
20
65.2925
40
1
50
90
51
180
0
LINE
8
0
10
6.5
20
51.35
11
6.5
21
65.2925
0
LINE
8
0
10
-11.5
20
50.1
11
5.25
21
50.1
0
ARC
8
0
10
-11.5
20
49.1
40
1
50
90
51
180
0
LINE
8
0
10
-12.5
20
-11
11
-12.5
21
49.1
0
ARC
8
0
10
-11.5
20
-11
40
1
50
180
51
270
0
ARC
8
0
10
33.725
20
-13.25
40
1.25
50
0
51
90
0
ARC
8
0
10
56.8857913
20
-22.29875
40
1.25
50
75.0000021
51
90
0
ARC
8
0
10
75.0660442
20
-27.1701341
40
1.25
50
59.9999999
51
75.0000021
0
ARC
8
0
10
109.4569045
20
-13.925
40
1.25
50
90
51
149.9999999
0
ARC
8
0
10
81.75
20
60.875
40
1.25
50
270
51
0
0
ARC
8
0
10
70.75
20
60.875
40
1.25
50
180
51
270
0
ARC
8
0
10
51.75
20
63.7325
40
1.25
50
180
51
270
0
ARC
8
0
10
24.25
20
67.5425
40
1.25
50
270
51
0
0
ARC
8
0
10
5.25
20
51.35
40
1.25
50
270
51
0
0
ENDSEC
0
EOF