0
SECTION
2
HEADER
9
$INSUNITS
70
4
0
ENDSEC
0
SECTION
2
TABLES
0
TABLE
2
LTYPE
0
LTYPE
72
65
70
64
2
CONTINUOUS
3
______
73
0
40
0
0
ENDTAB
0
TABLE
2
LAYER
0
ENDTAB
0
ENDSEC
0
SECTION
2
ENTITIES
0
LINE
8
0
10
-10.25
20
-11
11
34.725
21
-11
0
LINE
8
0
10
-11.5
20
-9.75
11
-11.5
21
47.85
0
LINE
8
0
10
-10.25
20
49.1
11
6.25
21
49.1
0
LINE
8
0
10
8.75
20
65.2925
11
25.25
21
65.2925
0
LINE
8
0
10
7.5
20
50.35
11
7.5
21
64.0425
0
LINE
8
0
10
27.75
20
71.96
11
48.25
21
71.96
0
LINE
8
0
10
49.5
20
70.71
11
49.5
21
62.7325
0
LINE
8
0
10
26.5
20
66.5425
11
26.5
21
70.71
0
LINE
8
0
10
50.75
20
61.4825
11
67.25
21
61.4825
0
LINE
8
0
10
68.5
20
60.2325
11
68.5
21
59.875
0
LINE
8
0
10
69.75
20
58.625
11
84.25
21
58.625
0
LINE
8
0
10
37.225
20
-20.04875
11
57.0174436
21
-20.04875
0
LINE
8
0
10
35.975
20
-18.79875
11
35.975
21
-12.25
0
LINE
8
0
10
57.3409674
20
-20.0913427
11
75.7755537
21
-25.0308752
0
LINE
8
0
10
94.925321
20
-34.5944409
11
106.8391072
21
-13.9591579
0
LINE
8
0
10
76.0770299
20
-25.1557507
11
93.2177892
21
-35.0519727
0
LINE
8
0
10
85.5
20
-0.975
11
85.5
21
57.375
0
LINE
8
0
10
86.1560639
20
-1.3292745
11
106.3505115
21
-12.2342762
0
ARC
8
0
10
34.725
20
-12.25
40
1.25
50
0
51
90
0
ARC
8
0
10
37.225
20
-18.79875
40
1.25
50
180
51
270
0
ARC
8
0
10
57.0174436
20
-21.29875
40
1.25
50
75.0000021
51
90
0
ARC
8
0
10
75.4520299
20
-26.2382825
40
1.25
50
59.9999999
51
75.0000021
0
ARC
8
0
10
93.8427892
20
-33.9694409
40
1.25
50
239.9999999
51
329.9999999
0
ARC
8
0
10
105.7565754
20
-13.3341579
40
1.25
50
329.9999999
51
421.6080377
0
ARC
8
0
10
86.75
20
-0.2293928
40
1.25
50
241.6080377
51
241.6309545
0
ARC
8
0
10
84.25
20
57.375
40
1.25
50
0
51
90
0
ARC
8
0
10
69.75
20
59.875
40
1.25
50
180
51
270
0
ARC
8
0
10
67.25
20
60.2325
40
1.25
50
0
51
90
0
ARC
8
0
10
50.75
20
62.7325
40
1.25
50
180
51
270
0
ARC
8
0
10
48.25
20
70.71
40
1.25
50
0
51
90
0
ARC
8
0
10
27.75
20
70.71
40
1.25
50
90
51
180
0
ARC
8
0
10
25.25
20
66.5425
40
1.25
50
270
51
0
0
ARC
8
0
10
8.75
20
64.0425
40
1.25
50
90
51
180
0
ARC
8
0
10
6.25
20
50.35
40
1.25
50
270
51
0
0
ARC
8
0
10
-10.25
20
47.85
40
1.25
50
90
51
180
0
ARC
8
0
10
-10.25
20
-9.75
40
1.25
50
180
51
270
0
LINE
8
0
10
85.5
20
-0.975
11
86.155624
21
-1.3290369
0
LINE
8
0
10
106.3505115
20
-12.2342762
11
106.3509514
21
-12.2345138
0
LINE
8
0
10
-7.15
20
-7.9
11
7.15
21
-7.9
0
LINE
8
0
10
7.15
20
-7.9
11
7.15
21
7.9
0
LINE
8
0
10
7.15
20
7.9
11
-7.15
21
7.9
0
LINE
8
0
10
-7.15
20
7.9
11
-7.15
21
-7.9
0
LINE
8
0
10
-7.15
20
11.15
11
7.15
21
11.15
0
LINE
8
0
10
7.15
20
11.15
11
7.15
21
26.95
0
LINE
8
0
10
7.15
20
26.95
11
-7.15
21
26.95
0
LINE
8
0
10
-7.15
20
26.95
11
-7.15
21
11.15
0
LINE
8
0
10
-7.15
20
30.2
11
7.15
21
30.2
0
LINE
8
0
10
7.15
20
30.2
11
7.15
21
46
0
LINE
8
0
10
7.15
20
46
11
-7.15
21
46
0
LINE
8
0
10
-7.15
20
46
11
-7.15
21
30.2
0
LINE
8
0
10
11.85
20
8.2925
11
26.15
21
8.2925
0
LINE
8
0
10
26.15
20
8.2925
11
26.15
21
24.0925
0
LINE
8
0
10
26.15
20
24.0925
11
11.85
21
24.0925
0
LINE
8
0
10
11.85
20
24.0925
11
11.85
21
8.2925
0
LINE
8
0
10
11.85
20
27.3425
11
26.15
21
27.3425
0
LINE
8
0
10
26.15
20
27.3425
11
26.15
21
43.1425
0
LINE
8
0
10
26.15
20
43.1425
11
11.85
21
43.1425
0
LINE
8
0
10
11.85
20
43.1425
11
11.85
21
27.3425
0
LINE
8
0
10
11.85
20
46.3925
11
26.15
21
46.3925
0
LINE
8
0
10
26.15
20
46.3925
11
26.15
21
62.1925
0
LINE
8
0
10
26.15
20
62.1925
11
11.85
21
62.1925
0
LINE
8
0
10
11.85
20
62.1925
11
11.85
21
46.3925
0
LINE
8
0
10
30.85
20
14.96
11
45.15
21
14.96
0
LINE
8
0
10
45.15
20
14.96
11
45.15
21
30.76
0
LINE
8
0
10
45.15
20
30.76
11
30.85
21
30.76
0
LINE
8
0
10
30.85
20
30.76
11
30.85
21
14.96
0
LINE
8
0
10
30.85
20
34.01
11
45.15
21
34.01
0
LINE
8
0
10
45.15
20
34.01
11
45.15
21
49.81
0
LINE
8
0
10
45.15
20
49.81
11
30.85
21
49.81
0
LINE
8
0
10
30.85
20
49.81
11
30.85
21
34.01
0
LINE
8
0
10
30.85
20
53.06
11
45.15
21
53.06
0
LINE
8
0
10
45.15
20
53.06
11
45.15
21
68.86
0
LINE
8
0
10
45.15
20
68.86
11
30.85
21
68.86
0
LINE
8
0
10
30.85
20
68.86
11
30.85
21
53.06
0
LINE
8
0
10
49.85
20
4.4825
11
64.15
21
4.4825
0
LINE
8
0
10
64.15
20
4.4825
11
64.15
21
20.2825
0
LINE
8
0
10
64.15
20
20.2825
11
49.85
21
20.2825
0
LINE
8
0
10
49.85
20
20.2825
11
49.85
21
4.4825
0
LINE
8
0
10
49.85
20
23.5325
11
64.15
21
23.5325
0
LINE
8
0
10
64.15
20
23.5325
11
64.15
21
39.3325
0
LINE
8
0
10
64.15
20
39.3325
11
49.85
21
39.3325
0
LINE
8
0
10
49.85
20
39.3325
11
49.85
21
23.5325
0
LINE
8
0
10
49.85
20
42.5825
11
64.15
21
42.5825
0
LINE
8
0
10
64.15
20
42.5825
11
64.15
21
58.3825
0
LINE
8
0
10
64.15
20
58.3825
11
49.85
21
58.3825
0
LINE
8
0
10
49.85
20
58.3825
11
49.85
21
42.5825
0
LINE
8
0
10
68.85
20
1.625
11
83.15
21
1.625
0
LINE
8
0
10
83.15
20
1.625
11
83.15
21
17.425
0
LINE
8
0
10
83.15
20
17.425
11
68.85
21
17.425
0
LINE
8
0
10
68.85
20
17.425
11
68.85
21
1.625
0
LINE
8
0
10
68.85
20
20.675
11
83.15
21
20.675
0
LINE
8
0
10
83.15
20
20.675
11
83.15
21
36.475
0
LINE
8
0
10
83.15
20
36.475
11
68.85
21
36.475
0
LINE
8
0
10
68.85
20
36.475
11
68.85
21
20.675
0
LINE
8
0
10
68.85
20
39.725
11
83.15
21
39.725
0
LINE
8
0
10
83.15
20
39.725
11
83.15
21
55.525
0
LINE
8
0
10
83.15
20
55.525
11
68.85
21
55.525
0
LINE
8
0
10
68.85
20
55.525
11
68.85
21
39.725
0
LINE
8
0
10
40.325
20
-16.94875
11
54.625
21
-16.94875
0
LINE
8
0
10
54.625
20
-16.94875
11
54.625
21
-1.14875
0
LINE
8
0
10
54.625
20
-1.14875
11
40.325
21
-1.14875
0
LINE
8
0
10
40.325
20
-1.14875
11
40.325
21
-16.94875
0
LINE
8
0
10
60.4542302
20
-17.7161828
11
74.2669695
21
-21.4172951
0
LINE
8
0
10
74.2669695
20
-21.4172951
11
78.3563104
21
-6.155667
0
LINE
8
0
10
78.3563104
20
-6.155667
11
64.5435711
21
-2.4545547
0
LINE
8
0
10
64.5435711
20
-2.4545547
11
60.4542302
21
-17.7161828
0
LINE
8
0
10
79.6989473
20
-23.667294
11
92.0831105
21
-30.817294
0
LINE
8
0
10
92.0831105
20
-30.817294
11
99.9831105
21
-17.1340926
0
LINE
8
0
10
99.9831105
20
-17.1340926
11
87.5989473
21
-9.9840926
0
LINE
8
0
10
87.5989473
20
-9.9840926
11
79.6989473
21
-23.667294
0
CIRCLE
8
0
10
9.75
20
44.7425
40
1.125
0
CIRCLE
8
0
10
9.5
20
3
40
1.125
0
CIRCLE
8
0
10
66.4
20
40.875
40
1.125
0
CIRCLE
8
0
10
58.5
20
-9.6175
40
1.125
0
CIRCLE
8
0
10
80.0332912
20
-14.7381933
40
1.125
0
ENDSEC
0
EOF