0
SECTION
2
HEADER
9
$INSUNITS
70
4
0
ENDSEC
0
SECTION
2
TABLES
0
TABLE
2
LTYPE
0
LTYPE
72
65
70
64
2
CONTINUOUS
3
______
73
0
40
0
0
ENDTAB
0
TABLE
2
LAYER
0
ENDTAB
0
ENDSEC
0
SECTION
2
ENTITIES
0
LINE
8
0
10
-10.25
20
-11
11
34.725
21
-11
0
LINE
8
0
10
-11.5
20
-9.75
11
-11.5
21
47.85
0
LINE
8
0
10
-10.25
20
49.1
11
6.25
21
49.1
0
LINE
8
0
10
8.75
20
65.2925
11
25.25
21
65.2925
0
LINE
8
0
10
7.5
20
50.35
11
7.5
21
64.0425
0
LINE
8
0
10
27.75
20
71.96
11
48.25
21
71.96
0
LINE
8
0
10
49.5
20
70.71
11
49.5
21
62.7325
0
LINE
8
0
10
26.5
20
66.5425
11
26.5
21
70.71
0
LINE
8
0
10
50.75
20
61.4825
11
67.25
21
61.4825
0
LINE
8
0
10
68.5
20
60.2325
11
68.5
21
59.875
0
LINE
8
0
10
69.75
20
58.625
11
82.75
21
58.625
0
LINE
8
0
10
37.225
20
-20.04875
11
57.0174436
21
-20.04875
0
LINE
8
0
10
35.975
20
-18.79875
11
35.975
21
-12.25
0
LINE
8
0
10
57.3409674
20
-20.0913427
11
75.7755537
21
-25.0308752
0
LINE
8
0
10
94.925321
20
-34.5944409
11
107.7970225
21
-12.3
0
LINE
8
0
10
76.0770299
20
-25.1557507
11
93.2177892
21
-35.0519727
0
LINE
8
0
10
108.8795543
20
-11.675
11
114.75
21
-11.675
0
LINE
8
0
10
116
20
-10.425
11
116
21
61.575
0
LINE
8
0
10
114.75
20
62.825
11
85.25
21
62.825
0
LINE
8
0
10
84
20
61.575
11
84
21
59.875
0
ARC
8
0
10
34.725
20
-12.25
40
1.25
50
0
51
90
0
ARC
8
0
10
37.225
20
-18.79875
40
1.25
50
180
51
270
0
ARC
8
0
10
57.0174436
20
-21.29875
40
1.25
50
75.0000021
51
90
0
ARC
8
0
10
75.4520299
20
-26.2382825
40
1.25
50
59.9999999
51
75.0000021
0
ARC
8
0
10
93.8427892
20
-33.9694409
40
1.25
50
239.9999999
51
329.9999999
0
ARC
8
0
10
108.8795543
20
-12.925
40
1.25
50
90
51
149.9999999
0
ARC
8
0
10
114.75
20
-10.425
40
1.25
50
270
51
0
0
ARC
8
0
10
114.75
20
61.575
40
1.25
50
0
51
90
0
ARC
8
0
10
85.25
20
61.575
40
1.25
50
90
51
180
0
ARC
8
0
10
82.75
20
59.875
40
1.25
50
270
51
0
0
ARC
8
0
10
69.75
20
59.875
40
1.25
50
180
51
270
0
ARC
8
0
10
67.25
20
60.2325
40
1.25
50
0
51
90
0
ARC
8
0
10
50.75
20
62.7325
40
1.25
50
180
51
270
0
ARC
8
0
10
48.25
20
70.71
40
1.25
50
0
51
90
0
ARC
8
0
10
27.75
20
70.71
40
1.25
50
90
51
180
0
ARC
8
0
10
25.25
20
66.5425
40
1.25
50
270
51
0
0
ARC
8
0
10
8.75
20
64.0425
40
1.25
50
90
51
180
0
ARC
8
0
10
6.25
20
50.35
40
1.25
50
270
51
0
0
ARC
8
0
10
-10.25
20
47.85
40
1.25
50
90
51
180
0
ARC
8
0
10
-10.25
20
-9.75
40
1.25
50
180
51
270
0
CIRCLE
8
0
10
9.75
20
44.7425
40
1.125
0
CIRCLE
8
0
10
9.5
20
3
40
1.125
0
CIRCLE
8
0
10
66.4
20
40.875
40
1.125
0
CIRCLE
8
0
10
58.5
20
-9.6175
40
1.125
0
CIRCLE
8
0
10
80.0332912
20
-14.7381933
40
1.125
0
ENDSEC
0
EOF