0
SECTION
2
HEADER
9
$INSUNITS
70
4
0
ENDSEC
0
SECTION
2
TABLES
0
TABLE
2
LTYPE
0
LTYPE
72
65
70
64
2
CONTINUOUS
3
______
73
0
40
0
0
ENDTAB
0
TABLE
2
LAYER
0
ENDTAB
0
ENDSEC
0
SECTION
2
ENTITIES
0
LINE
8
0
10
-10.25
20
-11
11
34.725
21
-11
0
LINE
8
0
10
-11.5
20
-9.75
11
-11.5
21
47.85
0
LINE
8
0
10
-10.25
20
49.1
11
6.25
21
49.1
0
LINE
8
0
10
8.75
20
65.2925
11
25.25
21
65.2925
0
LINE
8
0
10
7.5
20
50.35
11
7.5
21
64.0425
0
LINE
8
0
10
27.75
20
71.96
11
48.25
21
71.96
0
LINE
8
0
10
49.5
20
70.71
11
49.5
21
62.7325
0
LINE
8
0
10
26.5
20
66.5425
11
26.5
21
70.71
0
LINE
8
0
10
50.75
20
61.4825
11
67.25
21
61.4825
0
LINE
8
0
10
68.5
20
60.2325
11
68.5
21
59.875
0
LINE
8
0
10
69.75
20
58.625
11
84.25
21
58.625
0
LINE
8
0
10
37.225
20
-20.04875
11
57.0174436
21
-20.04875
0
LINE
8
0
10
35.975
20
-18.79875
11
35.975
21
-12.25
0
LINE
8
0
10
57.3409674
20
-20.0913427
11
75.7755537
21
-25.0308752
0
LINE
8
0
10
94.925321
20
-34.5944409
11
106.8391072
21
-13.9591579
0
LINE
8
0
10
76.0770299
20
-25.1557507
11
93.2177892
21
-35.0519727
0
LINE
8
0
10
85.5
20
-0.975
11
85.5
21
57.375
0
LINE
8
0
10
86.1560639
20
-1.3292745
11
106.3505115
21
-12.2342762
0
ARC
8
0
10
34.725
20
-12.25
40
1.25
50
0
51
90
0
ARC
8
0
10
37.225
20
-18.79875
40
1.25
50
180
51
270
0
ARC
8
0
10
57.0174436
20
-21.29875
40
1.25
50
75.0000021
51
90
0
ARC
8
0
10
75.4520299
20
-26.2382825
40
1.25
50
59.9999999
51
75.0000021
0
ARC
8
0
10
93.8427892
20
-33.9694409
40
1.25
50
239.9999999
51
329.9999999
0
ARC
8
0
10
105.7565754
20
-13.3341579
40
1.25
50
329.9999999
51
421.6080377
0
ARC
8
0
10
86.75
20
-0.2293928
40
1.25
50
241.6080377
51
241.6309545
0
ARC
8
0
10
84.25
20
57.375
40
1.25
50
0
51
90
0
ARC
8
0
10
69.75
20
59.875
40
1.25
50
180
51
270
0
ARC
8
0
10
67.25
20
60.2325
40
1.25
50
0
51
90
0
ARC
8
0
10
50.75
20
62.7325
40
1.25
50
180
51
270
0
ARC
8
0
10
48.25
20
70.71
40
1.25
50
0
51
90
0
ARC
8
0
10
27.75
20
70.71
40
1.25
50
90
51
180
0
ARC
8
0
10
25.25
20
66.5425
40
1.25
50
270
51
0
0
ARC
8
0
10
8.75
20
64.0425
40
1.25
50
90
51
180
0
ARC
8
0
10
6.25
20
50.35
40
1.25
50
270
51
0
0
ARC
8
0
10
-10.25
20
47.85
40
1.25
50
90
51
180
0
ARC
8
0
10
-10.25
20
-9.75
40
1.25
50
180
51
270
0
LINE
8
0
10
85.5
20
-0.975
11
86.155624
21
-1.3290369
0
LINE
8
0
10
106.3505115
20
-12.2342762
11
106.3509514
21
-12.2345138
0
LINE
8
0
10
-7
20
-7
11
7
21
-7
0
LINE
8
0
10
7
20
-7
11
7
21
7
0
LINE
8
0
10
7
20
7
11
-7
21
7
0
LINE
8
0
10
-7
20
7
11
-7
21
-7
0
LINE
8
0
10
-7
20
12.05
11
7
21
12.05
0
LINE
8
0
10
7
20
12.05
11
7
21
26.05
0
LINE
8
0
10
7
20
26.05
11
-7
21
26.05
0
LINE
8
0
10
-7
20
26.05
11
-7
21
12.05
0
LINE
8
0
10
-7
20
31.1
11
7
21
31.1
0
LINE
8
0
10
7
20
31.1
11
7
21
45.1
0
LINE
8
0
10
7
20
45.1
11
-7
21
45.1
0
LINE
8
0
10
-7
20
45.1
11
-7
21
31.1
0
LINE
8
0
10
12
20
9.1925
11
26
21
9.1925
0
LINE
8
0
10
26
20
9.1925
11
26
21
23.1925
0
LINE
8
0
10
26
20
23.1925
11
12
21
23.1925
0
LINE
8
0
10
12
20
23.1925
11
12
21
9.1925
0
LINE
8
0
10
12
20
28.2425
11
26
21
28.2425
0
LINE
8
0
10
26
20
28.2425
11
26
21
42.2425
0
LINE
8
0
10
26
20
42.2425
11
12
21
42.2425
0
LINE
8
0
10
12
20
42.2425
11
12
21
28.2425
0
LINE
8
0
10
12
20
47.2925
11
26
21
47.2925
0
LINE
8
0
10
26
20
47.2925
11
26
21
61.2925
0
LINE
8
0
10
26
20
61.2925
11
12
21
61.2925
0
LINE
8
0
10
12
20
61.2925
11
12
21
47.2925
0
LINE
8
0
10
31
20
15.86
11
45
21
15.86
0
LINE
8
0
10
45
20
15.86
11
45
21
29.86
0
LINE
8
0
10
45
20
29.86
11
31
21
29.86
0
LINE
8
0
10
31
20
29.86
11
31
21
15.86
0
LINE
8
0
10
31
20
34.91
11
45
21
34.91
0
LINE
8
0
10
45
20
34.91
11
45
21
48.91
0
LINE
8
0
10
45
20
48.91
11
31
21
48.91
0
LINE
8
0
10
31
20
48.91
11
31
21
34.91
0
LINE
8
0
10
31
20
53.96
11
45
21
53.96
0
LINE
8
0
10
45
20
53.96
11
45
21
67.96
0
LINE
8
0
10
45
20
67.96
11
31
21
67.96
0
LINE
8
0
10
31
20
67.96
11
31
21
53.96
0
LINE
8
0
10
50
20
5.3825
11
64
21
5.3825
0
LINE
8
0
10
64
20
5.3825
11
64
21
19.3825
0
LINE
8
0
10
64
20
19.3825
11
50
21
19.3825
0
LINE
8
0
10
50
20
19.3825
11
50
21
5.3825
0
LINE
8
0
10
50
20
24.4325
11
64
21
24.4325
0
LINE
8
0
10
64
20
24.4325
11
64
21
38.4325
0
LINE
8
0
10
64
20
38.4325
11
50
21
38.4325
0
LINE
8
0
10
50
20
38.4325
11
50
21
24.4325
0
LINE
8
0
10
50
20
43.4825
11
64
21
43.4825
0
LINE
8
0
10
64
20
43.4825
11
64
21
57.4825
0
LINE
8
0
10
64
20
57.4825
11
50
21
57.4825
0
LINE
8
0
10
50
20
57.4825
11
50
21
43.4825
0
LINE
8
0
10
69
20
2.525
11
83
21
2.525
0
LINE
8
0
10
83
20
2.525
11
83
21
16.525
0
LINE
8
0
10
83
20
16.525
11
69
21
16.525
0
LINE
8
0
10
69
20
16.525
11
69
21
2.525
0
LINE
8
0
10
69
20
21.575
11
83
21
21.575
0
LINE
8
0
10
83
20
21.575
11
83
21
35.575
0
LINE
8
0
10
83
20
35.575
11
69
21
35.575
0
LINE
8
0
10
69
20
35.575
11
69
21
21.575
0
LINE
8
0
10
69
20
40.625
11
83
21
40.625
0
LINE
8
0
10
83
20
40.625
11
83
21
54.625
0
LINE
8
0
10
83
20
54.625
11
69
21
54.625
0
LINE
8
0
10
69
20
54.625
11
69
21
40.625
0
LINE
8
0
10
40.475
20
-16.04875
11
54.475
21
-16.04875
0
LINE
8
0
10
54.475
20
-16.04875
11
54.475
21
-2.04875
0
LINE
8
0
10
54.475
20
-2.04875
11
40.475
21
-2.04875
0
LINE
8
0
10
40.475
20
-2.04875
11
40.475
21
-16.04875
0
LINE
8
0
10
60.8320562
20
-16.8856724
11
74.3550178
21
-20.509139
0
LINE
8
0
10
74.3550178
20
-20.509139
11
77.9784844
21
-6.9861774
0
LINE
8
0
10
77.9784844
20
-6.9861774
11
64.4555228
21
-3.3627108
0
LINE
8
0
10
64.4555228
20
-3.3627108
11
60.8320562
21
-16.8856724
0
LINE
8
0
10
80.2788511
20
-22.9628711
11
92.4032067
21
-29.9628711
0
LINE
8
0
10
92.4032067
20
-29.9628711
11
99.4032067
21
-17.8385155
0
LINE
8
0
10
99.4032067
20
-17.8385155
11
87.2788511
21
-10.8385155
0
LINE
8
0
10
87.2788511
20
-10.8385155
11
80.2788511
21
-22.9628711
0
CIRCLE
8
0
10
9.75
20
44.7425
40
1.125
0
CIRCLE
8
0
10
9.5
20
3
40
1.125
0
CIRCLE
8
0
10
66.4
20
40.875
40
1.125
0
CIRCLE
8
0
10
58.5
20
-9.6175
40
1.125
0
CIRCLE
8
0
10
80.0332912
20
-14.7381933
40
1.125
0
ENDSEC
0
EOF